<svg width="250" height="250" xmlns="http://www.w3.org/2000/svg"><g data-name="Grupo 3" style="fill:#f2c12e;fill-opacity:1"><g data-name="layer1" transform="matrix(.76448 0 0 .76361 43.15 54.058)" style="fill:#f2c12e;fill-opacity:1"><ellipse style="fill:#000;fill-opacity:1;stroke:#000;stroke-width:7.57161;stroke-linecap:square;stroke-linejoin:round;stroke-opacity:1" cx="106.925" cy="92.854" rx="159.635" ry="159.909"/><ellipse style="fill:#f3c63e;stroke:none;stroke-width:7.126;stroke-linecap:square;stroke-linejoin:round" cx="106.993" cy="92.852" rx="150.219" ry="150.518"/><path data-name="path1" d="M152.062-19.809c-14.749 0-26.704 11.642-26.704 26.004a17.63 21.435 0 0 0 1.6 8.816c3.925 17.842 14.031 30.99 21.703 45.992 12.017-14.836 21.837-29.318 26.786-42.248a18.154 22.072 0 0 0 3.317-12.561c0-14.36-11.956-26.003-26.703-26.003zM5.889-5.864 21.797 5.541 1.261 4.179l18.522 16.34-12.819.17 13.438 10.545-5.56-.17c3.714 4.661 8.213 7.839 10.62 14.28a26.02 31.636 0 0 0 11.042 16.662l-2.729.53c-11.5 3.74-19.612 5.396-39.285 17.461q-.32.172-.62.38c-.314.194-.605.366-.925.566l.07.126a5.782 7.03 0 0 0-2.31 5.516 6.436 7.825 0 0 0 6.77 7.341 7.504 9.123 0 0 0 2.414-.484l.05.089c15.764-7.59 33.928-17.524 48.882-17.02 1.85 53.311 31.411 71.414 32.124 71.147 32.735-18.455 61.67-40.606 113.056-42.211l.445 1.168-.136-.146-66.409 67.068q-.55-.212-1.069-.465a10.879 13.227 0 0 0 3.393-9.788c0-6.863-3.948-12.425-8.818-12.427a8.163 9.925 0 0 0-5.848 3.131c-1.467-7.19-2.178-15.043-4.028-21.469l-15.065 8.47c1.53 18.967 6.988 35.77 12.594 50.246l-15.843 16.117a6.722 8.173 0 0 0-3.713 7.075c0 4.617 3.545 8.359 7.919 8.359a8.353 10.156 0 0 0 6.405-3.454l101.605-100.945-.368-.396L236.63 87.07a6.85 8.33 0 0 0 2.824-6.669 7.27 8.84 0 0 0-7.496-8.53 7.746 9.418 0 0 0-5.496 2.727l-10.22 9.74 5.62-10.754a6.235 7.58 0 0 0 1.51-4.868c0-4.672-3.7-8.461-8.269-8.463a8.176 9.94 0 0 0-7.968 6.218l-9.115 22.301c-38.925-1.343-75.189 12.096-110.893 35.064 1.483-11.513 2.891-25.301 9.922-35.067l-1.698 26.47 17.374-9.403 1.058-45.077a8.306 10.099 0 0 0-7.859-13.283 8.26 10.043 0 0 0-5.416 2.463l-.1-.059c-.187.278-.37.562-.554.84a8.311 10.105 0 0 0-.717 1.086c-11.744 17.82-21.913 37.357-29 59.434-4.167-7.17-6.832-18.312-6.906-37.208l17.52 2.802 7.05-11.365c-9.897-1.135-18.294-4.277-23.037-5.341a1.324 1.61 0 0 1-.65-.478 26.84 32.633 0 0 0 9.811-25.411A26.316 31.996 0 0 0 57.653 4.241C54.193.756 50.737-.534 47.281-2.117zm146.235 1.605c5.81 0 10.518 4.423 10.518 9.879 0 5.455-4.709 9.878-10.518 9.878-5.808 0-10.518-4.423-10.518-9.878 0-5.456 4.71-9.879 10.518-9.879zm-36.217 82.586-.352 19.214c1.238.642 5.786 3.043 6.442 4.165l16.399-6.15c-5.549-7.034-15.633-13.233-22.489-17.23zm36.577 35.807-15.226 5.329 19.26 22.254 10.367-10.871zm26.504 34.684-11.904 11.913c-.267 1.298 6.819 8.22 12.23 3.01 5.02-4.828 1.163-14.66-.326-14.923z" fill="#355a26" style="display:inline;fill:#000;fill-opacity:1;stroke-width:1.40644"/></g></g></svg>