<?xml version="1.0" encoding="UTF-8" standalone="no"?>
<svg
   width="250"
   height="250"
   viewBox="0 0 250 250"
   version="1.1"
   id="svg1"
   sodipodi:docname="logo.svg"
   inkscape:export-filename="..\bitmap.png"
   inkscape:export-xdpi="1009.85"
   inkscape:export-ydpi="1009.85"
   inkscape:version="1.3-dev (4631277b6, 2023-02-24)"
   xmlns:inkscape="http://www.inkscape.org/namespaces/inkscape"
   xmlns:sodipodi="http://sodipodi.sourceforge.net/DTD/sodipodi-0.dtd"
   xmlns="http://www.w3.org/2000/svg"
   xmlns:svg="http://www.w3.org/2000/svg">
  <sodipodi:namedview
     id="namedview1"
     pagecolor="#ffffff"
     bordercolor="#000000"
     borderopacity="0.25"
     inkscape:showpageshadow="2"
     inkscape:pageopacity="0.0"
     inkscape:pagecheckerboard="0"
     inkscape:deskcolor="#d1d1d1"
     inkscape:zoom="1.8694691"
     inkscape:cx="97.086387"
     inkscape:cy="94.411831"
     inkscape:window-width="1920"
     inkscape:window-height="1001"
     inkscape:window-x="-9"
     inkscape:window-y="-9"
     inkscape:window-maximized="1"
     inkscape:current-layer="layer1-2"
     showgrid="false" />
  <defs
     id="defs1" />
  <g
     id="Grupo_3"
     data-name="Grupo 3"
     transform="matrix(0.76887602,0,0,0.79560322,-36.501113,-94.825922)"
     style="fill:#f2c12e;fill-opacity:1">
    <g
       id="layer1-2"
       data-name="layer1"
       transform="matrix(0.99428904,0,0,0.95978962,103.59525,187.13363)"
       style="fill:#f2c12e;fill-opacity:1">
      <ellipse
         style="fill:#000000;fill-opacity:1;stroke:#000000;stroke-width:7.57161;stroke-linecap:square;stroke-linejoin:round;stroke-opacity:1"
         id="path1-5"
         cx="106.92531"
         cy="92.85376"
         rx="159.63513"
         ry="159.90858" />
      <ellipse
         style="fill:#f3c63e;stroke:none;stroke-width:7.126;stroke-linecap:square;stroke-linejoin:round"
         id="path1"
         cx="106.99312"
         cy="92.851677"
         rx="150.21909"
         ry="150.51823" />
      <path
         id="path1-2"
         data-name="path1"
         d="m 152.06185,-19.808504 c -14.74881,0 -26.70423,11.6417544 -26.70423,26.0035908 a 17.630203,21.434971 0 0 0 1.60079,8.8162202 c 3.92476,17.841798 14.03069,30.989365 21.70291,45.991672 12.01664,-14.836372 21.83687,-29.317617 26.78587,-42.248074 a 18.154441,22.072345 0 0 0 3.31635,-12.5613715 c 0,-14.3602831 -11.95542,-26.0020375 -26.70296,-26.0020375 z M 5.8888224,-5.8638299 21.797076,5.5406533 1.261245,4.1790633 19.783034,20.518149 6.9640844,20.688736 20.401661,31.234083 14.84168,31.063497 c 3.714307,4.661663 8.213056,7.839225 10.619958,14.279642 a 26.020558,31.636044 0 0 0 11.042158,16.6632 l -2.728333,0.528818 c -11.500067,3.740497 -19.61236,5.396737 -39.2859411,17.461856 q -0.3188808,0.172136 -0.6199028,0.379947 c -0.3137764,0.193839 -0.6045949,0.365983 -0.9247507,0.566033 l 0.070156,0.125604 a 5.7819213,7.0297151 0 0 0 -2.3099615,5.51615 6.4362617,7.8252686 0 0 0 6.7704463,7.341424 7.5038699,9.1232768 0 0 0 2.41328043,-0.483846 l 0.049749,0.08845 C 15.702649,85.94118 33.867296,76.006839 48.821466,76.510844 50.670965,129.82222 80.23236,147.92454 80.945375,147.65782 113.68026,129.20346 142.61538,107.05204 194.00088,105.44697 l 0.44514,1.16774 -0.13646,-0.14577 -66.40857,67.0684 q -0.54974,-0.21247 -1.06888,-0.46524 a 10.878891,13.226657 0 0 0 3.39288,-9.78857 c 0,-6.86223 -3.94772,-12.42488 -8.81765,-12.42645 a 8.1633126,9.9250334 0 0 0 -5.84825,3.13103 c -1.46683,-7.19098 -2.17859,-15.04262 -4.0281,-21.46908 l -15.065111,8.47041 c 1.53062,18.9661 6.988561,35.76886 12.594451,50.24548 l -15.843201,16.11731 a 6.7219777,8.1726447 0 0 0 -3.713031,7.07468 c 0,4.6167 3.544665,8.35874 7.918421,8.35874 a 8.3533648,10.156101 0 0 0 6.405651,-3.45359 l 101.60515,-100.94534 -0.3686,-0.39546 31.56649,-30.922655 v 0 a 6.850805,8.3292741 0 0 0 2.82402,-6.668391 7.2704502,8.8394829 0 0 0 -7.49621,-8.529323 7.7462183,9.4179263 0 0 0 -5.49622,2.726283 l -10.21945,9.740497 5.61993,-10.754712 a 6.2347301,7.5802443 0 0 0 1.50894,-4.867917 c 0,-4.672522 -3.69901,-8.461091 -8.26791,-8.462644 a 8.1760676,9.9405415 0 0 0 -7.96816,6.217104 l -9.11484,22.301862 C 159.09632,87.428376 122.83208,100.86749 87.12781,123.83463 88.611238,112.3216 90.019409,98.533562 97.050059,88.768263 l -1.69772,26.470377 17.373821,-9.40398 1.0574,-45.076705 a 8.3061706,10.098722 0 0 0 -7.85845,-13.282484 8.260252,10.042893 0 0 0 -5.41584,2.462647 l -0.0995,-0.05895 c -0.18749,0.277592 -0.3699,0.561385 -0.554851,0.840527 a 8.3112727,10.104925 0 0 0 -0.71684,1.085558 C 87.394394,69.625354 77.224694,89.162161 70.137917,111.23915 65.970801,104.06987 63.306247,92.927472 63.232266,74.031137 l 17.520509,2.802271 7.048511,-11.365714 C 77.904544,64.332518 69.507813,61.190624 64.765439,60.126784 A 1.3239873,1.6097164 0 0 1 64.114923,59.649144 26.840716,32.633199 0 0 0 73.926207,34.237957 26.316479,31.995826 0 0 0 57.653152,4.2410948 C 54.193949,0.75647755 50.737294,-0.53377655 47.280643,-2.1171303 Z m 146.2355276,1.605062 c 5.80872,0 10.51793,4.42284435 10.51793,9.8785113 0,5.4556666 -4.70921,9.8785106 -10.51793,9.8785106 -5.80871,0 -10.51791,-4.422844 -10.51791,-9.8785106 0,-5.45566695 4.7092,-9.8785113 10.51791,-9.8785113 z m -36.21704,82.5855829 -0.35203,19.214247 c 1.23725,0.64203 5.78574,3.042638 6.44135,4.165408 l 16.39933,-6.150413 C 132.84747,88.521683 122.76322,82.323188 115.90731,78.326815 Z m 36.57673,35.807675 -15.22584,5.32846 19.26031,22.25381 10.36614,-10.87103 z m 26.50399,34.68332 -11.90441,11.91313 c -0.26658,1.298 6.81892,8.21917 12.23095,3.01008 5.01916,-4.8276 1.16198,-14.65958 -0.32654,-14.92321 z"
         fill="#355a26"
         style="display:inline;fill:#000000;fill-opacity:1;stroke-width:1.40644" />
    </g>
  </g>
</svg>
