<?xml version="1.0" encoding="UTF-8" standalone="no"?>
<!-- Created with Inkscape (http://www.inkscape.org/) -->

<svg
   width="200mm"
   height="200mm"
   viewBox="0 0 200 200"
   version="1.1"
   id="svg1"
   xml:space="preserve"
   inkscape:version="1.3.2 (091e20e, 2023-11-25, custom)"
   sodipodi:docname="logo-dp.svg"
   xmlns:inkscape="http://www.inkscape.org/namespaces/inkscape"
   xmlns:sodipodi="http://sodipodi.sourceforge.net/DTD/sodipodi-0.dtd"
   xmlns="http://www.w3.org/2000/svg"
   xmlns:svg="http://www.w3.org/2000/svg"><sodipodi:namedview
     id="namedview1"
     pagecolor="#505050"
     bordercolor="#eeeeee"
     borderopacity="1"
     inkscape:showpageshadow="0"
     inkscape:pageopacity="0"
     inkscape:pagecheckerboard="0"
     inkscape:deskcolor="#505050"
     inkscape:document-units="mm"
     inkscape:zoom="0.25"
     inkscape:cx="-926"
     inkscape:cy="900"
     inkscape:window-width="1920"
     inkscape:window-height="1032"
     inkscape:window-x="0"
     inkscape:window-y="0"
     inkscape:window-maximized="1"
     inkscape:current-layer="layer1" /><defs
     id="defs1" /><g
     inkscape:label="Capa 1"
     inkscape:groupmode="layer"
     id="layer1"><g
       id="g2"
       transform="matrix(1.647115,0,0,1.7366155,-70.302433,-89.116413)"
       style="stroke-width:0.591272"><path
         id="path1"
         style="display:inline;fill:#dfff60;fill-opacity:1;stroke-width:0.359492;stroke-linecap:round;stroke-linejoin:round;paint-order:fill markers stroke"
         d="m 103.29654,71.480391 c -1.88469,14.65577 -8.540515,21.291999 -17.526065,21.960417 l -11.369332,-0.0026 C 37.85753,95.620269 38.544331,144.1632 74.281254,146.32854 l 29.209066,-0.009 z m -29.725837,40.147939 10.079488,0.0279 0.0078,16.37678 -10.097058,-0.003 c -10.325518,-1.76771 -9.830625,-15.44424 0.0098,-16.40158 z" /><path
         id="path1-8"
         style="display:inline;fill:#6d8d8b;fill-opacity:1;stroke-width:0.359492;stroke-linecap:round;stroke-linejoin:round;paint-order:fill markers stroke"
         d="m 103.49221,146.31804 c 1.88469,-14.65577 8.54052,-21.292 17.52608,-21.96042 l 11.36933,0.003 c 36.54361,-2.18206 35.85681,-50.72499 0.11989,-52.89033 l -29.20908,0.009 z m 29.72585,-40.14794 -10.07949,-0.0279 -0.008,-16.37678 10.09706,0.003 c 10.32552,1.76771 9.83063,15.44424 -0.01,16.40158 z" /></g></g></svg>
